<svg version="1" xmlns="http://www.w3.org/2000/svg" width="682.667" height="682.667" viewBox="0 0 512.000000 512.000000"><path d="M233 24.1c-61.7 6.8-117.1 36.1-155.2 82-28.3 34.2-45.6 72.6-52.5 116.9-2.4 15.9-2.4 49.9 0 66 3.8 24.7 10.9 47.6 21.7 69.5 27.6 56.1 76.8 99.1 135.5 118.4 43.1 14.2 87.1 15.7 130.9 4.7 66-16.7 121.5-61.8 151.6-123 16.5-33.7 23.4-64 23.4-102.6 0-38.6-6.9-69-23.4-102.5-34-69.1-98.3-116.1-175-128-12.5-1.9-45.1-2.8-57-1.4zM300.8 131c25.4 2.8 47.6 11.3 61.1 23.6 11.3 10.1 20 28.5 20.1 42.1v4.2l-5.7 1.1c-3.2.7-14.3 2.9-24.7 5.1-10.4 2.1-19.5 3.9-20.2 3.9-.7 0-1.9-2.4-2.8-5.3-4.8-16.4-29.2-24.9-67.6-23.4-31 1.2-54.5 7.8-60.5 17-6.3 9.7-3.4 17 9.2 22.9 10.5 5 21.9 6.7 50.3 7.8 43 1.6 63.5 6.3 82.2 18.6 26.3 17.4 32.2 50.8 14.7 82.2-4.7 8.5-15.7 20.5-24.5 26.8-8.2 5.9-24.8 13.7-35.9 16.9-35.4 10.2-87 10.4-117 .3-14.3-4.8-28.9-14.4-36.6-24-7.2-9-13.9-26.7-13.9-36.5v-2.8l25.6-5.2c14.1-2.9 26-5 26.5-4.7.5.3.9 1.4.9 2.5 0 6.2 7.5 14.4 17.5 19.1 9.8 4.5 18.1 5.9 38.7 6.5 46.3 1.3 75.8-8.9 75.8-26.1 0-4.2-4.4-9.7-9.9-12.5-11.4-5.8-24.1-7.9-57.1-9.1-33.7-1.2-51.7-4.7-68.1-12.9-23.5-11.8-34.4-28.1-34.2-51.1.2-42.7 34.4-74.9 89.6-84.6 19.3-3.3 48-4.4 66.5-2.4z"/></svg>